<?xml version="1.0" encoding="UTF-8"?>
<svg xmlns="http://www.w3.org/2000/svg" xmlns:xlink="http://www.w3.org/1999/xlink" viewBox="0 0 50 50" width="50px" height="50px">
<g id="surface135846453">
<path style=" stroke:none;fill-rule:nonzero;fill:rgb(100%,100%,100%);fill-opacity:1;" d="M 24.332031 7.078125 C 16.9375 7.078125 9.992188 7.640625 6.296875 8.421875 C 3.832031 8.984375 1.703125 10.664062 1.257812 13.238281 C 0.8125 15.925781 0.359375 19.960938 0.359375 25 C 0.359375 30.039062 0.804688 33.960938 1.367188 36.761719 C 1.816406 39.222656 3.941406 41.015625 6.40625 41.578125 C 10.332031 42.359375 17.046875 42.921875 24.441406 42.921875 C 31.832031 42.921875 38.550781 42.359375 42.46875 41.578125 C 44.9375 41.015625 47.0625 39.335938 47.507812 36.761719 C 47.960938 33.960938 48.519531 29.929688 48.628906 24.890625 C 48.628906 19.851562 48.070312 15.816406 47.507812 13.015625 C 47.0625 10.554688 44.9375 8.761719 42.46875 8.199219 C 38.550781 7.640625 31.71875 7.078125 24.332031 7.078125 Z M 24.332031 9.320312 C 32.394531 9.320312 38.886719 9.988281 42.023438 10.550781 C 43.703125 11 45.046875 12.121094 45.269531 13.578125 C 45.941406 17.160156 46.390625 20.96875 46.390625 24.890625 C 46.28125 29.703125 45.71875 33.625 45.269531 36.421875 C 44.9375 38.550781 42.695312 39.222656 42.023438 39.449219 C 37.988281 40.234375 31.269531 40.789062 24.550781 40.789062 C 17.828125 40.789062 11 40.34375 7.078125 39.449219 C 5.398438 39 4.058594 37.878906 3.832031 36.421875 C 2.9375 33.285156 2.601562 29.144531 2.601562 25 C 2.601562 19.847656 3.050781 16.039062 3.496094 13.691406 C 3.832031 11.558594 6.183594 10.886719 6.742188 10.664062 C 10.441406 9.878906 17.273438 9.320312 24.332031 9.320312 Z M 18.28125 16.039062 L 18.28125 33.960938 L 33.960938 25 Z M 20.519531 19.851562 L 29.480469 25 L 20.519531 30.148438 Z M 20.519531 19.851562 "/>
</g>
</svg>
